<svg width="806" height="810" viewBox="0 0 806 810" fill="none" xmlns="http://www.w3.org/2000/svg">
<g clip-path="url(#clip0_2_2)">
<path d="M168.282 615.12C160.402 614.34 152.522 613.52 144.642 612.78C118.932 610.37 93.2216 608.01 67.5116 605.58C55.9716 604.49 47.3816 598.6 42.1616 588.44C22.8416 550.8 9.88162 511.01 3.29162 469.24C-0.318376 446.39 12.1016 431.77 35.3016 429.93C83.9616 426.07 132.602 422.07 181.252 418.11C185.142 417.79 189.032 417.33 192.922 416.94C192.922 416.22 192.922 415.51 192.932 414.79C191.652 414.37 190.392 413.68 189.092 413.56C167.552 411.5 146.002 409.52 124.462 407.49C98.2816 405.03 72.1116 402.53 45.9316 400.05C39.6316 399.45 33.2716 399.28 27.0416 398.25C8.30162 395.17 -2.14838 379.49 0.371624 359.67C6.01162 315.4 17.3016 272.78 36.4616 232.37C38.7416 227.55 41.2516 222.84 43.4516 217.99C49.9816 203.58 61.2816 197.1 76.8916 195.98C121.892 192.76 166.852 189.01 211.832 185.47C235.912 183.57 259.992 181.67 284.072 179.72C286.952 179.49 289.822 178.97 292.712 177.58C291.852 177.31 291.012 176.87 290.132 176.79C252.492 173.32 214.852 169.91 177.222 166.4C165.302 165.29 153.262 164.67 141.532 162.45C117.812 157.96 107.682 127.91 124.932 111.09C139.652 96.74 155.922 83.73 172.732 71.85C212.282 43.89 255.852 24.22 302.912 12.44C327.342 6.32001 352.092 2.42001 377.262 0.820013C441.602 -3.27999 503.282 7.73001 562.572 32.72C575.172 38.03 582.212 47.63 582.402 61.3C582.582 74.3 576.942 84.47 565.042 90.54C562.592 91.79 559.912 92.6 557.372 94.59C561.012 95.01 564.652 95.55 568.312 95.84C598.842 98.27 629.362 100.68 659.902 103.04C669.202 103.76 677.262 106.93 684.042 113.6C743.142 171.74 782.072 240.99 798.722 322.38C801.822 337.51 804.262 352.87 805.522 368.25C807.112 387.61 794.622 400.9 775.342 402.67C740.872 405.84 706.422 409.19 671.962 412.5C670.722 412.62 669.522 413.04 668.302 414.43C672.592 414.85 676.882 415.34 681.182 415.69C711.562 418.13 741.942 420.62 772.332 422.91C788.562 424.13 801.482 433.79 803.202 448.4C804.172 456.64 802.832 465.34 801.402 473.63C790.182 538.7 764.242 597.36 724.612 650.18C716.322 661.23 706.162 666.6 692.612 667.57C670.382 669.18 648.202 671.52 626.002 673.58C625.072 673.67 624.162 674.06 621.932 674.67C624.022 675.39 624.922 675.81 625.872 676C639.272 678.63 648.182 686.43 651.362 699.69C654.572 713.09 650.482 724.38 639.402 732.84C610.322 755.06 578.412 772.28 543.992 784.43C490.002 803.48 434.312 812.04 377.002 808.37C340.592 806.03 305.192 798.62 270.462 787.34C241.422 777.9 214.052 765.05 188.562 748.54C155.872 727.38 125.902 702.75 100.182 673.3C91.9516 663.87 89.7416 652.93 94.1116 641.15C98.4716 629.38 107.092 622.21 119.662 620.85C134.232 619.28 148.872 618.37 163.482 617.14C165.092 617 166.682 616.66 168.292 616.41C168.292 615.97 168.292 615.53 168.302 615.09L168.282 615.12Z" fill="#EF233C"/>
<path d="M374.208 218.654L383.065 220.983L381.671 224.247C378.402 265.459 370.95 298.527 359.293 324.374C370.716 333.221 380.511 341.844 386.802 349.754L377.242 362.556C371.419 355.102 362.55 346.724 352.298 338.335C340.407 359.993 324.789 375.825 306.137 387C304.04 383.045 299.611 377.452 296.343 374.187C313.834 364.873 328.515 349.743 340.172 328.786C331.549 322.269 322.458 316.208 313.589 310.86L310.789 321.11L297.503 314.124C303.326 293.636 310.555 264.055 317.315 234.018H294V219.345H320.583C324.309 201.887 327.578 185.119 330.378 170.212L349.498 172.54C349.264 174.167 347.87 175.103 344.835 175.337C342.27 188.606 339.001 203.747 335.509 219.345H371.419L374.219 218.643L374.208 218.654ZM332.241 234.018C327.344 255.677 321.978 277.559 317.092 296.655C326.886 302.014 336.915 308.532 346.698 315.049C356.024 293.39 362.785 266.384 366.053 234.018H332.241ZM474.696 208.638C489.845 227.734 506.177 252.88 512 269.882L498.245 277.336C496.617 272.679 494.285 267.32 491.485 261.504C454.65 264.534 416.877 266.863 392.391 268.49C391.923 270.35 390.528 271.286 389.123 271.52L382.597 253.36L401.483 252.658C411.277 229.606 422.232 194.912 428.066 170L448.581 175.125C447.878 176.752 446.015 177.688 443.215 177.921C436.924 199.58 426.426 229.851 416.866 252.201L484.714 248.936C477.954 237.528 469.788 225.417 461.867 215.178L474.685 208.66L474.696 208.638ZM400.088 386.543V291.073H498.948V385.607H483.33V375.591H415.014V386.532H400.088V386.543ZM483.319 305.746H415.003V361.163H483.319V305.746Z" fill="#EDF2F4"/>
<path d="M204.28 447.12H351.12V637.62H335.28V624.05H219.89V638.98H204.28V447.12ZM335.28 462.5H219.89V527.44H335.28V462.5ZM219.89 608.66H335.28V542.37H219.89V608.66Z" fill="#EDF2F4"/>
<path d="M593.67 496.89H511.09C530.55 537.16 564.49 574.49 601.37 592.14C597.52 595.31 592.55 601.19 589.83 605.49C554.31 586.26 522.18 550.06 501.36 509.11V583.32H546.61V598.7H501.36V642.59H485.52V598.7H439.59V583.32H485.52V509.56C464.03 550.51 431.67 586.03 397.51 605.94C394.79 602.09 390.04 596.44 386.65 593.5C422.17 575.17 456.11 537.16 475.79 496.89H394.11V481.5H485.52V432.63L505.88 433.76C505.65 435.34 504.52 436.47 501.35 436.93V481.5H593.66V496.89H593.67Z" fill="#EDF2F4"/>
</g>
<defs>
<clipPath id="clip0_2_2">
<rect width="805.65" height="809.23" fill="white"/>
</clipPath>
</defs>
</svg>
